<svg id="not" xmlns="http://www.w3.org/2000/svg" width="60.1" height="60.1" viewBox="0 0 60.1 60.1">
  <path id="Path_1" data-name="Path 1" d="M53.2,0H6.9A6.914,6.914,0,0,0,0,6.9V38.2a1.9,1.9,0,1,0,3.8,0V12.5H56.3V38.1a1.9,1.9,0,0,0,3.8,0V6.9A7.046,7.046,0,0,0,53.2,0ZM3.8,8.7V6.9A3.116,3.116,0,0,1,6.9,3.8H53.2a3.116,3.116,0,0,1,3.1,3.1V8.8H3.8Z" fill="#c6cbd2"/>
  <path id="Path_2" data-name="Path 2" d="M20.7,25a1.9,1.9,0,0,0-1.9,1.9v4L16,26a1.951,1.951,0,0,0-2.1-.9,1.921,1.921,0,0,0-1.4,1.8V38.2a1.9,1.9,0,1,0,3.8,0v-4L19,39a1.9,1.9,0,0,0,1.6,1,.9.9,0,0,0,.5-.1,1.921,1.921,0,0,0,1.4-1.8V26.9A1.817,1.817,0,0,0,20.7,25Z" fill="#c6cbd2"/>
  <path id="Path_3" data-name="Path 3" d="M30.7,25H29.4A4.439,4.439,0,0,0,25,29.4v6.3a4.439,4.439,0,0,0,4.4,4.4h1.3a4.439,4.439,0,0,0,4.4-4.4V29.4A4.507,4.507,0,0,0,30.7,25Zm.6,10.6a.645.645,0,0,1-.6.6H29.4a.645.645,0,0,1-.6-.6V29.3a.645.645,0,0,1,.6-.6h1.3a.645.645,0,0,1,.6.6Z" fill="#c6cbd2"/>
  <path id="Path_4" data-name="Path 4" d="M45.7,25H39.4a1.9,1.9,0,1,0,0,3.8h1.2v9.4a1.9,1.9,0,0,0,3.8,0V28.8h1.3a1.9,1.9,0,0,0,1.9-1.9A1.965,1.965,0,0,0,45.7,25Z" fill="#c6cbd2"/>
  <path id="Path_5" data-name="Path 5" d="M55.7,45H51.9A1.9,1.9,0,0,0,50,46.9V58.1A1.9,1.9,0,0,0,51.9,60h3.8a4.439,4.439,0,0,0,4.4-4.4V49.3A4.489,4.489,0,0,0,55.7,45Zm.6,10.6a.645.645,0,0,1-.6.6H53.8V48.7h1.9a.645.645,0,0,1,.6.6Z" fill="#c6cbd2"/>
  <path id="Path_6" data-name="Path 6" d="M4.4,48.7H8.1a1.9,1.9,0,0,0,0-3.8H4.4A4.6,4.6,0,0,0,0,49.4v8.7a1.9,1.9,0,1,0,3.8,0V55H8.2a1.9,1.9,0,0,0,1.9-1.9,1.839,1.839,0,0,0-1.9-1.9H3.8V49.3A.645.645,0,0,1,4.4,48.7Z" fill="#c6cbd2"/>
  <path id="Path_7" data-name="Path 7" d="M45.7,45a1.9,1.9,0,0,0-1.9,1.9v4L41,46a1.951,1.951,0,0,0-2.1-.9,1.921,1.921,0,0,0-1.4,1.8V58.1a1.9,1.9,0,1,0,3.8,0v-4L44,59a1.9,1.9,0,0,0,1.6,1,.9.9,0,0,0,.5-.1,1.921,1.921,0,0,0,1.4-1.8V46.9A1.817,1.817,0,0,0,45.7,45Z" fill="#c6cbd2"/>
  <path id="Path_8" data-name="Path 8" d="M18.2,45H17a4.439,4.439,0,0,0-4.4,4.4v6.3A4.439,4.439,0,0,0,17,60.1h1.2a4.439,4.439,0,0,0,4.4-4.4V49.4A4.507,4.507,0,0,0,18.2,45Zm.6,10.6a.645.645,0,0,1-.6.6H17a.645.645,0,0,1-.6-.6V49.3a.645.645,0,0,1,.6-.6h1.2a.645.645,0,0,1,.6.6Z" fill="#c6cbd2"/>
  <path id="Path_9" data-name="Path 9" d="M33.2,45a1.9,1.9,0,0,0-1.9,1.9v8.7a.645.645,0,0,1-.6.6H29.4a.645.645,0,0,1-.6-.6V46.9a1.9,1.9,0,1,0-3.8,0v8.7A4.439,4.439,0,0,0,29.4,60h1.3a4.439,4.439,0,0,0,4.4-4.4V46.9A1.965,1.965,0,0,0,33.2,45Z" fill="#c6cbd2"/>
</svg>
